<svg xmlns="http://www.w3.org/2000/svg" viewBox="0 0 500 500"><g id="freepik--background-complete--inject-135"><path d="M426.27,139.26s-7.25-5.57-17.82,12S393.61,179,393.61,179s-2.72,3.64-5.16,1-5.52-10-10.07-9.05c-4.71,1-6.6,6-6.26,13.67s.48,24.38.48,25.9-1,3.6-3,2-12.84-15.57-19.18-10-1.91,26.68-1.46,29-.08,3.25-1.2,3.74-4.33-4.57-7.59-8.43-7.72-7.77-11.11-4.25-5.5,19,7.48,45.24l6.81,11.78,13.66.21c29.27-1.32,41.78-10.62,43.23-15.29s-4.13-6.68-9.09-7.67-10.93-1.37-11.05-2.59.46-2.12,2.71-2.85,22.87-7,24.68-15.27-15.72-11-18-12-.93-2.86.37-3.57,16.07-8.7,22.92-12.09,10.35-7.48,8.94-12.08c-1.35-4.44-9.26-3.6-12.78-4.45s-1.65-5-1.65-5,6.91-8.68,17.16-26.4,1.64-21.43,1.64-21.43" style="fill:#ebebeb"></path><path d="M416.77,155s-.06.13-.19.38l-.62,1.1c-.55,1-1.36,2.39-2.39,4.21-2.08,3.65-5.13,8.92-8.92,15.41-7.58,13-18.2,30.84-30,50.52s-22.46,37.51-30.1,50.45l-9,15.35-2.46,4.16-.65,1.08c-.15.25-.23.36-.23.36s.06-.13.19-.38.35-.63.61-1.1l2.4-4.21c2.08-3.65,5.13-8.92,8.92-15.41,7.58-13,18.2-30.84,30-50.52s22.46-37.51,30.1-50.45l9-15.34,2.46-4.17.65-1.08C416.69,155.06,416.77,155,416.77,155Z" style="fill:#e0e0e0"></path><path d="M382.28,181.33a4,4,0,0,1,.28.94c.15.62.35,1.51.58,2.62.46,2.21,1,5.28,1.57,8.69s1,6.39,1.39,8.71c.17,1.05.32,1.93.43,2.64a5.27,5.27,0,0,1,.13,1,4.25,4.25,0,0,1-.29-.94c-.15-.61-.35-1.51-.57-2.62-.44-2.21-.95-5.29-1.51-8.7s-1.06-6.38-1.44-8.7c-.18-1-.33-1.92-.45-2.63A4.74,4.74,0,0,1,382.28,181.33Z" style="fill:#e0e0e0"></path><path d="M387.88,206.23c0-.11,6.27-1.54,14-3.18s14.1-2.89,14.13-2.78-6.26,1.54-14,3.19S387.91,206.35,387.88,206.23Z" style="fill:#e0e0e0"></path><path d="M368.41,235.64a4.24,4.24,0,0,1,1,0l2.72.2c2.3.17,5.48.39,9,.5s6.7.12,9,.1h2.73a3.89,3.89,0,0,1,1,0,4.35,4.35,0,0,1-1,.12c-.65,0-1.58.11-2.73.15-2.31.1-5.5.15-9,0s-6.71-.38-9-.62c-1.15-.13-2.08-.24-2.72-.34A3.92,3.92,0,0,1,368.41,235.64Z" style="fill:#e0e0e0"></path><path d="M358.38,214.23a3.56,3.56,0,0,1,.48.8c.31.61.7,1.35,1.16,2.24,1,1.9,2.26,4.54,3.68,7.47s2.68,5.58,3.57,7.52c.41.9.76,1.67,1,2.3a3.48,3.48,0,0,1,.33.87,3.56,3.56,0,0,1-.48-.8c-.31-.61-.7-1.36-1.16-2.24-1-1.9-2.26-4.54-3.68-7.47s-2.68-5.59-3.57-7.52l-1-2.3A4.31,4.31,0,0,1,358.38,214.23Z" style="fill:#e0e0e0"></path><path d="M337.89,238a7.56,7.56,0,0,1,.6,1l1.5,2.87c1.24,2.43,2.94,5.8,4.79,9.53s3.51,7.13,4.69,9.59l1.37,2.93a5.47,5.47,0,0,1,.45,1.1,9.15,9.15,0,0,1-.6-1l-1.49-2.87c-1.25-2.43-2.95-5.8-4.8-9.53s-3.5-7.12-4.68-9.59l-1.38-2.93A5.21,5.21,0,0,1,337.89,238Z" style="fill:#e0e0e0"></path><path d="M351.16,264.31a6.88,6.88,0,0,1,1.27,0l3.46.14c2.92.11,7,.24,11.42.27s8.5-.05,11.42-.13l3.47-.09a7.88,7.88,0,0,1,1.27,0,7.44,7.44,0,0,1-1.27.15c-.81.07-2,.15-3.46.22-2.92.15-7,.28-11.43.25s-8.51-.21-11.43-.4c-1.47-.09-2.65-.18-3.46-.26A6.69,6.69,0,0,1,351.16,264.31Z" style="fill:#e0e0e0"></path><rect x="58.27" y="172.79" width="5.75" height="255.52" transform="translate(-1.61 0.33) rotate(-0.31)" style="fill:#e0e0e0"></rect><rect x="72.03" y="172.71" width="5.75" height="255.52" transform="translate(-1.61 0.41) rotate(-0.31)" style="fill:#e0e0e0"></rect><rect x="192.3" y="172.07" width="5.75" height="255.52" transform="translate(-1.6 1.05) rotate(-0.31)" style="fill:#e0e0e0"></rect><rect x="206.07" y="172" width="5.75" height="255.52" transform="translate(-1.6 1.12) rotate(-0.31)" style="fill:#e0e0e0"></rect><rect x="57.6" y="172.39" width="153.55" height="5.83" transform="translate(-0.94 0.72) rotate(-0.31)" style="fill:#e0e0e0"></rect><rect x="57.87" y="224.85" width="153.55" height="1.74" transform="translate(-1.21 0.72) rotate(-0.31)" style="fill:#e0e0e0"></rect><rect x="58.13" y="274.3" width="153.55" height="1.74" transform="translate(-1.47 0.73) rotate(-0.31)" style="fill:#e0e0e0"></rect><rect x="58.4" y="323.74" width="153.55" height="1.74" transform="translate(-1.74 0.73) rotate(-0.31)" style="fill:#e0e0e0"></rect><rect x="58.66" y="373.19" width="153.55" height="1.74" transform="translate(-2 0.73) rotate(-0.31)" style="fill:#e0e0e0"></rect><rect x="120.91" y="344.34" width="27.2" height="28.86" transform="matrix(1, -0.01, 0.01, 1, -1.92, 0.73)" style="fill:#ebebeb"></rect><rect x="147.99" y="344.19" width="27.2" height="28.86" transform="translate(-1.92 0.87) rotate(-0.31)" style="fill:#f5f5f5"></rect><path d="M120.88,352.31c18.07.18,36.2,0,54.27-.26a.21.21,0,0,0,0-.42c-18.07-.09-36.2-.05-54.27.32a.18.18,0,0,0,0,.36Z" style="fill:#e0e0e0"></path><rect x="120.31" y="235.7" width="19.92" height="21.13" transform="matrix(1, -0.01, 0.01, 1, -1.32, 0.7)" style="fill:#ebebeb"></rect><rect x="140.14" y="235.59" width="19.92" height="21.13" transform="matrix(1, -0.01, 0.01, 1, -1.32, 0.81)" style="fill:#f5f5f5"></rect><path d="M120.29,241.59q19.86.16,39.75-.18a.22.22,0,0,0,0-.43c-13.23-.07-26.51,0-39.75.25a.18.18,0,0,0,0,.36Z" style="fill:#e0e0e0"></path><rect x="107.88" y="256.53" width="36.2" height="17.22" transform="matrix(1, -0.01, 0.01, 1, -1.42, 0.68)" style="fill:#ebebeb"></rect><rect x="143.9" y="256.33" width="36.2" height="17.22" transform="matrix(1, -0.01, 0.01, 1, -1.42, 0.87)" style="fill:#f5f5f5"></rect><path d="M107.86,261.41c24,.27,48.18,0,72.22-.35a.22.22,0,0,0,0-.43c-24.05-.12-48.18-.11-72.22.42a.18.18,0,0,0,0,.36Z" style="fill:#e0e0e0"></path><rect x="108.92" y="189.61" width="9.09" height="35.45" transform="translate(-1.11 0.61) rotate(-0.31)" style="fill:#ebebeb"></rect><rect x="99.67" y="199.24" width="9.09" height="25.78" transform="translate(-1.13 0.56) rotate(-0.31)" style="fill:#e0e0e0"></rect><rect x="118.14" y="196.19" width="14.13" height="28.73" transform="translate(-1.13 0.67) rotate(-0.31)" style="fill:#e0e0e0"></rect><rect x="132.05" y="196.14" width="4.49" height="28.73" transform="matrix(1, -0.01, 0.01, 1, -1.12, 0.72)" style="fill:#ebebeb"></rect><rect x="136.56" y="202.75" width="4.49" height="22.09" transform="translate(-1.15 0.75) rotate(-0.31)" style="fill:#e0e0e0"></rect><rect x="100.93" y="290.43" width="9.09" height="33.24" transform="translate(124.37 -17.06) rotate(22.29)" style="fill:#e0e0e0"></rect><rect x="114.87" y="288.59" width="9.09" height="35.45" transform="translate(-1.64 0.64) rotate(-0.31)" style="fill:#ebebeb"></rect><rect x="128.64" y="295.15" width="14.13" height="28.73" transform="translate(-1.66 0.73) rotate(-0.31)" style="fill:#e0e0e0"></rect><rect x="125.52" y="284.55" width="3.09" height="39.37" transform="translate(-1.63 0.69) rotate(-0.31)" style="fill:#ebebeb"></rect><rect x="123.99" y="290.7" width="1.55" height="33.24" transform="translate(-1.65 0.67) rotate(-0.31)" style="fill:#f5f5f5"></rect><rect x="158.83" y="306.44" width="1.55" height="33.24" transform="translate(-162.59 484.39) rotate(-90.31)" style="fill:#f5f5f5"></rect><rect x="142.81" y="313.08" width="36.23" height="9.19" transform="translate(-1.7 0.87) rotate(-0.31)" style="fill:#ebebeb"></rect><rect x="142.76" y="303.84" width="29.1" height="9.19" transform="matrix(1, -0.01, 0.01, 1, -1.65, 0.85)" style="fill:#e0e0e0"></rect><path d="M249.93,43c1.29-6.1.51-13.06.58-19.28s.86-13.17-.25-19.31a.86.86,0,0,0-1.64,0c-1.12,6.15-.46,13.06-.52,19.31s-1,13.18.3,19.28a.8.8,0,0,0,1.53,0Z" style="fill:#e0e0e0"></path><path d="M194.94,91.45H305.06s-10.17-48.67-55.89-48.67C208.49,42.78,194.94,91.45,194.94,91.45Z" style="fill:#f5f5f5"></path></g><g id="freepik--Floor--inject-135"><path d="M478.44,428.37c0,.14-101.34.26-226.32.26s-226.35-.12-226.35-.26,101.32-.26,226.35-.26S478.44,428.22,478.44,428.37Z" style="fill:#263238"></path></g><g id="freepik--Device--inject-135"><rect x="156.18" y="138.42" width="187.64" height="289.62" rx="11.55" style="fill:#455a64"></rect><path d="M255.75,414.57a7.22,7.22,0,1,1-7.2-7.74A7.49,7.49,0,0,1,255.75,414.57Z" style="fill:#263238"></path><rect x="221.74" y="146.76" width="56.51" height="3.2" rx="1.22" style="fill:#263238"></rect><rect x="162.58" y="155.04" width="175.8" height="244.35" style="fill:#263238"></rect><path d="M292.74,374.17l.65-.06a13.39,13.39,0,0,0,1.88-.25,12.62,12.62,0,0,0,2.9-1,12.14,12.14,0,0,0,3.41-2.4,12.39,12.39,0,0,0,2.86-4.36,13.49,13.49,0,0,0,.81-6.12A12.54,12.54,0,0,0,296.13,349a14.16,14.16,0,0,0-2.08-.4c-.72,0-1.44-.08-2.19-.07H287.3l-9.67,0-21.35,0-48.91,0a12.76,12.76,0,0,0-6.06,1.58A12.48,12.48,0,0,0,195,360.28a13.32,13.32,0,0,0,.91,6,12.83,12.83,0,0,0,3.49,4.76,12.54,12.54,0,0,0,5.18,2.59,24.55,24.55,0,0,0,5.75.35H216l39.95.06,26.93.08,7.32.05,1.9,0,.65,0-.65,0-1.9,0-7.32,0-26.93.08-39.95.06h-8.61c-.49,0-1,0-1.49-.09a14.58,14.58,0,0,1-1.47-.26,13,13,0,0,1-5.39-2.69,13.37,13.37,0,0,1-3.64-4.95,13.83,13.83,0,0,1-.95-6.18,12.61,12.61,0,0,1,1.95-6,12.89,12.89,0,0,1,4.66-4.44,13.23,13.23,0,0,1,6.32-1.65l48.91,0,21.35,0h14.23c.74,0,1.49,0,2.23.07a15,15,0,0,1,2.14.43A12.86,12.86,0,0,1,305.54,360a13.69,13.69,0,0,1-.87,6.23,12.61,12.61,0,0,1-2.94,4.41,12.28,12.28,0,0,1-3.49,2.4,12.81,12.81,0,0,1-2.95,1,11.91,11.91,0,0,1-1.9.19C293,374.18,292.74,374.17,292.74,374.17Z" style="fill:#fff"></path><path d="M227.93,359.58l-.62.78a2.43,2.43,0,0,0-1.75-.8,2.22,2.22,0,1,0,0,4.43,2.57,2.57,0,0,0,1.75-.74l.63.7a3.58,3.58,0,0,1-2.44,1,3.19,3.19,0,1,1,0-6.37A3.48,3.48,0,0,1,227.93,359.58Z" style="fill:#fff"></path><path d="M235,361.79a3.34,3.34,0,1,1-3.34-3.18A3.22,3.22,0,0,1,235,361.79Zm-5.6,0a2.26,2.26,0,0,0,2.27,2.24,2.24,2.24,0,1,0-2.27-2.24Z" style="fill:#fff"></path><path d="M240.6,364.94l-3.36-4.52v4.52h-1.06v-6.3h1l3.38,4.53v-4.53h1v6.3Z" style="fill:#fff"></path><path d="M244.37,359.59v1.82h2.86v.95h-2.86v2.58H243.3v-6.3h4.24v.95Z" style="fill:#fff"></path><path d="M248.48,364.94v-6.3h1.06v6.3Z" style="fill:#fff"></path><path d="M254,363h-1.78v1.9H251.2v-6.3h2.55c1.61,0,2.54.78,2.54,2.15a2,2,0,0,1-1.3,2l1.41,2.11h-1.21Zm-.29-.94c1,0,1.53-.42,1.53-1.27s-.55-1.23-1.53-1.23h-1.49v2.5Z" style="fill:#fff"></path><path d="M263.38,364.94v-4.71l-2,4h-.7l-2-4v4.71h-1v-6.3H259l2.08,4.18,2.07-4.18h1.26v6.3Z" style="fill:#fff"></path><path d="M267.09,359.59v1.7h3.08v1h-3.08V364h3.55v.95H266v-6.3h4.5v.95Z" style="fill:#fff"></path><path d="M274.52,358.64a3.15,3.15,0,1,1,0,6.3h-2.56v-6.3ZM273,364h1.54a2.11,2.11,0,0,0,2.16-2.19,2.15,2.15,0,0,0-2.2-2.21H273Z" style="fill:#fff"></path></g><g id="freepik--Envelope--inject-135"><polygon points="182.55 240.22 315.71 239.26 319.42 329.79 181.54 328.51 182.55 240.22" style="fill:#FF725E"></polygon><polyline points="182.55 240.22 250.15 185.52 315.71 239.26" style="fill:#FF725E"></polyline><g style="opacity:0.30000000000000004"><polyline points="182.55 240.22 250.15 185.52 315.71 239.26"></polyline></g><path d="M181.54,328.51c-.17-.15,10.49-11.79,23.81-26s24.24-25.59,24.41-25.43-10.49,11.79-23.81,26S181.71,328.67,181.54,328.51Z" style="fill:#263238"></path><path d="M319.42,329.79c-.17.15-10.55-11.25-23.18-25.47s-22.74-25.87-22.57-26,10.55,11.25,23.18,25.47S319.59,329.64,319.42,329.79Z" style="fill:#263238"></path><g style="opacity:0.5"><polyline points="315.71 239.26 248.84 292.68 182.55 240.22"></polyline></g><polygon points="189.26 245.17 189.06 206.44 305.69 203.58 306.96 245.96 248.84 291.98 189.26 245.17" style="fill:#ebebeb"></polygon><path d="M250.47,278.06a29,29,0,0,1-28.89-32.28,29,29,0,0,1,57.66,6.53h0a29,29,0,0,1-28.77,25.75Zm-.08-57a28,28,0,1,0,27.85,31.17h0a28,28,0,0,0-24.68-31A28.2,28.2,0,0,0,250.39,221Z" style="fill:#FF725E"></path><polygon points="230.69 253.07 235.54 247.13 246.88 255.32 265.31 233.6 270.87 238.49 247.16 265.81 230.69 253.07" style="fill:#FF725E"></polygon></g><g id="freepik--Plant--inject-135"><path d="M91.19,371.73A11.21,11.21,0,0,1,99,375.8a19.83,19.83,0,0,1,3.92,8.06c1.46,5.65.48,12.29-1.18,17.88-6.08-2.23-9.78-8.77-11.46-12.2-2.64-5.43-4.12-16.84.93-17.81" style="fill:#FF725E"></path><path d="M110.44,408.65a9.59,9.59,0,0,1-.37-9.62,12.73,12.73,0,0,1,7.72-6.09,5.38,5.38,0,0,1,4.5.25,4.09,4.09,0,0,1,1.55,3.86,8.3,8.3,0,0,1-1.79,3.93c-3,4-6.63,7.3-11.61,7.67" style="fill:#FF725E"></path><path d="M111,427.48a7.21,7.21,0,0,1-.27-1.18c-.15-.83-.35-1.91-.6-3.21a34,34,0,0,1-.57-10.79,20.49,20.49,0,0,1,4.09-10,13.86,13.86,0,0,1,2.33-2.32,6.4,6.4,0,0,1,.73-.51,1.5,1.5,0,0,1,.27-.16,23.11,23.11,0,0,0-3.1,3.17,21.23,21.23,0,0,0-3.9,9.84,36.15,36.15,0,0,0,.45,10.68c.21,1.36.37,2.47.47,3.24A6.62,6.62,0,0,1,111,427.48Z" style="fill:#263238"></path><path d="M93.09,380.32a2.81,2.81,0,0,1,.24.46l.61,1.37c.53,1.18,1.28,2.91,2.18,5.05,1.8,4.28,4.2,10.23,6.71,16.86s4.64,12.69,6.12,17.1c.74,2.2,1.33,4,1.71,5.22.18.59.33,1.06.44,1.43a2.79,2.79,0,0,1,.13.51,3.07,3.07,0,0,1-.21-.48l-.51-1.4c-.45-1.28-1.08-3-1.84-5.19-1.56-4.37-3.73-10.41-6.24-17s-4.86-12.59-6.59-16.9c-.85-2.11-1.54-3.85-2-5.1l-.54-1.39A1.94,1.94,0,0,1,93.09,380.32Z" style="fill:#263238"></path><path d="M103.81,415a22.42,22.42,0,0,0-17.29-11c-1.81-.14-4,.14-4.79,1.75s.24,3.55,1.45,4.89a19.17,19.17,0,0,0,20.7,4.81" style="fill:#FF725E"></path><path d="M89.22,408.85a7.93,7.93,0,0,1,1.13.06,9.24,9.24,0,0,1,1.31.16c.51.1,1.1.16,1.73.34a18.75,18.75,0,0,1,2,.59,20.11,20.11,0,0,1,2.28.89,23,23,0,0,1,8.76,6.88,23.73,23.73,0,0,1,1.39,2,21.27,21.27,0,0,1,1,1.87c.31.58.5,1.14.7,1.61a9.67,9.67,0,0,1,.44,1.26,5.16,5.16,0,0,1,.28,1.09c-.09,0-.51-1.53-1.69-3.82a18.82,18.82,0,0,0-1.06-1.82,22,22,0,0,0-1.4-2,25.24,25.24,0,0,0-3.91-3.89,26.57,26.57,0,0,0-4.7-2.88,21.1,21.1,0,0,0-2.24-.91,20.53,20.53,0,0,0-2-.63C90.82,409.05,89.21,409,89.22,408.85Z" style="fill:#263238"></path></g></svg>